<?xml version="1.0" standalone="no"?>
<!DOCTYPE svg PUBLIC "-//W3C//DTD SVG 20010904//EN"
 "http://www.w3.org/TR/2001/REC-SVG-20010904/DTD/svg10.dtd">
<svg version="1.0" xmlns="http://www.w3.org/2000/svg"
 width="1280.000000pt" height="930.000000pt" viewBox="0 0 1280.000000 930.000000"
 preserveAspectRatio="xMidYMid meet">
<metadata>
Created by potrace 1.15, written by Peter Selinger 2001-2017
</metadata>
<g transform="translate(0.000000,930.000000) scale(0.100000,-0.100000)"
fill="#000000" stroke="none">
<path d="M4402 8990 c-106 -28 -187 -75 -262 -150 -150 -152 -221 -364 -207
-624 12 -223 72 -373 201 -502 129 -128 245 -175 441 -175 181 0 306 46 421
153 72 68 132 175 160 286 34 135 16 149 -198 158 -115 5 -161 4 -172 -5 -7
-6 -19 -32 -25 -58 -35 -136 -118 -201 -223 -173 -61 17 -85 36 -113 94 -49
100 -57 360 -15 507 34 119 140 179 236 133 46 -22 72 -68 90 -160 8 -43 19
-83 25 -89 11 -11 126 -12 273 0 127 9 141 21 132 107 -30 264 -190 454 -421
503 -98 21 -253 18 -343 -5z"/>
<path d="M11690 9004 c-198 -36 -351 -150 -437 -324 -66 -132 -87 -234 -87
-420 0 -127 4 -171 22 -243 34 -137 84 -229 172 -318 113 -114 224 -159 395
-159 104 0 176 17 258 60 67 35 67 35 67 12 0 -10 6 -27 14 -37 12 -17 26 -19
122 -18 98 2 111 5 127 24 15 19 17 53 17 383 0 297 -3 366 -14 382 -14 18
-31 19 -299 22 -360 4 -332 18 -332 -173 0 -175 0 -175 146 -175 54 0 99 -3
99 -6 0 -3 -7 -21 -16 -40 -11 -23 -32 -41 -67 -59 -60 -30 -97 -31 -152 -6
-90 41 -134 137 -143 308 -8 191 25 332 94 393 42 36 70 44 135 38 78 -8 121
-56 149 -166 17 -68 35 -74 165 -57 185 24 197 27 217 47 16 16 19 28 14 62
-33 214 -184 390 -386 451 -54 16 -231 28 -280 19z"/>
<path d="M591 8978 c-28 -15 -22 3 -285 -822 -91 -286 -166 -530 -166 -541 0
-48 25 -55 188 -55 180 0 164 -11 215 156 l34 109 179 0 178 0 36 -116 c19
-64 41 -124 49 -133 11 -14 40 -16 197 -16 199 0 214 4 214 56 0 37 -409 1336
-426 1354 -20 20 -376 27 -413 8z m203 -683 c14 -49 26 -96 26 -102 0 -9 -20
-13 -66 -13 l-66 0 7 28 c21 88 58 193 65 186 4 -5 19 -49 34 -99z"/>
<path d="M2130 8983 c-40 -14 -40 -12 -40 -709 0 -625 1 -673 18 -693 17 -21
21 -21 398 -22 309 0 394 3 448 15 219 51 348 216 333 429 -7 101 -41 173
-118 247 l-57 56 43 42 c80 78 116 193 95 310 -15 88 -47 147 -114 210 -66 62
-136 97 -226 111 -66 11 -752 14 -780 4z m671 -362 c33 -33 37 -67 14 -111
-20 -39 -46 -45 -190 -45 l-120 0 -3 93 -3 92 136 0 137 0 29 -29z m-7 -515
c42 -18 66 -51 66 -94 0 -85 -42 -105 -220 -106 l-135 -1 -3 108 -3 107 131 0
c89 0 141 -4 164 -14z"/>
<path d="M5880 8972 l-25 -20 -3 -579 c-4 -626 1 -775 25 -798 22 -23 564 -22
666 1 231 51 411 232 479 481 29 106 31 325 4 428 -38 147 -135 296 -247 381
-71 55 -105 71 -197 96 -68 18 -113 21 -377 25 -290 5 -301 4 -325 -15z m556
-347 c186 -55 252 -391 118 -606 -47 -75 -123 -112 -224 -107 l-65 3 -3 350
c-1 192 0 356 3 362 6 18 109 17 171 -2z"/>
<path d="M7787 8970 l-27 -21 0 -673 c0 -592 2 -674 16 -694 l15 -22 494 0
495 0 16 24 c13 21 15 49 12 165 -2 98 -7 144 -16 153 -10 10 -84 14 -312 16
l-300 3 0 94 0 95 224 0 c290 0 271 -12 271 175 0 187 19 175 -271 175 l-224
0 0 84 0 85 296 3 296 3 19 24 c16 20 19 40 19 151 0 111 -3 131 -19 151 l-19
24 -479 3 c-474 3 -480 2 -506 -18z"/>
<path d="M9560 8983 c-8 -3 -23 -12 -32 -21 -17 -14 -18 -60 -18 -686 0 -592
2 -674 16 -694 15 -21 21 -22 193 -22 159 0 180 2 194 18 14 16 17 52 19 258
l3 239 226 3 c208 2 228 4 244 21 14 16 17 41 18 143 1 68 -2 133 -6 145 -12
34 -73 46 -212 42 -66 -1 -155 -2 -197 -1 l-78 2 0 94 0 95 296 3 c267 3 297
5 308 20 16 21 26 191 17 268 -5 45 -10 57 -31 67 -19 10 -134 13 -485 12
-253 0 -467 -3 -475 -6z"/>
<path d="M630 6570 c-20 -20 -20 -33 -20 -695 0 -662 0 -675 20 -695 18 -18
33 -20 179 -20 137 0 162 2 180 18 20 16 21 26 24 272 l2 255 158 3 157 3 0
-246 c0 -242 4 -277 34 -297 6 -4 84 -8 173 -8 178 0 187 3 198 63 3 18 5 324
3 680 l-3 649 -24 19 c-21 17 -41 19 -178 19 -150 0 -155 -1 -178 -25 l-25
-24 0 -236 0 -236 -157 3 -158 3 -2 240 c-3 230 -4 241 -24 258 -18 15 -43 17
-180 17 -146 0 -161 -2 -179 -20z"/>
<path d="M2534 6565 l-24 -25 2 -676 c3 -656 4 -676 22 -690 15 -11 58 -14
183 -14 150 0 165 2 183 20 20 20 20 33 20 695 0 662 0 675 -20 695 -18 18
-33 20 -180 20 -158 0 -161 0 -186 -25z"/>
<path d="M3919 6571 l-24 -19 -5 -501 -5 -500 -23 -23 c-21 -22 -29 -23 -136
-20 -152 4 -146 11 -146 -172 0 -124 2 -145 18 -159 27 -24 153 -40 277 -34
217 9 333 79 399 240 20 51 21 66 24 612 l3 560 -22 18 c-18 15 -44 17 -179
17 -140 0 -160 -2 -181 -19z"/>
<path d="M5092 6574 l-22 -15 0 -684 0 -684 22 -15 c18 -13 54 -16 180 -16
208 0 198 -10 198 184 l0 145 61 91 c34 50 65 90 70 88 6 -2 58 -107 116 -233
58 -127 115 -240 126 -252 20 -22 26 -23 202 -23 164 0 184 2 198 18 10 10 17
29 17 41 0 12 -79 191 -176 399 -97 207 -183 392 -190 409 l-14 33 150 225
c92 137 150 234 150 249 0 48 -30 56 -195 56 -112 0 -156 -4 -170 -14 -11 -7
-90 -118 -175 -245 -85 -127 -158 -231 -162 -231 -5 0 -8 101 -8 225 0 287 17
265 -198 265 -126 0 -162 -3 -180 -16z"/>
<path d="M6954 6565 l-24 -25 2 -676 c3 -656 4 -676 22 -690 16 -12 94 -14
451 -14 517 0 468 -16 473 152 2 61 1 125 -2 144 -13 64 -12 64 -281 64 l-244
0 -3 516 -3 516 -24 19 c-21 17 -41 19 -183 19 -156 0 -159 0 -184 -25z"/>
<path d="M8569 6571 l-24 -19 0 -677 0 -677 24 -19 c20 -17 40 -19 156 -19
116 0 136 2 156 19 l24 19 5 363 5 364 39 -130 c139 -466 187 -611 203 -622
24 -18 243 -18 267 0 20 14 26 33 157 457 l94 305 5 -370 c3 -203 7 -371 8
-372 1 -1 9 -9 18 -17 13 -13 44 -16 179 -16 145 0 165 2 186 19 l24 19 0 677
0 677 -24 19 c-21 18 -42 19 -271 19 -221 0 -250 -2 -269 -17 -15 -13 -46
-101 -113 -320 -51 -166 -97 -303 -102 -305 -5 -2 -49 134 -98 302 -64 218
-95 310 -110 323 -18 15 -46 17 -268 17 -229 0 -250 -1 -271 -19z"/>
<path d="M10890 6570 c-20 -20 -20 -33 -20 -695 0 -662 0 -675 20 -695 18 -18
33 -20 150 -20 117 0 132 2 150 20 19 19 20 33 20 365 0 190 3 345 8 345 4 0
61 -93 126 -207 215 -375 288 -498 304 -510 11 -9 59 -13 158 -13 125 0 145 2
165 19 l24 19 0 677 0 677 -24 19 c-20 16 -40 19 -146 19 -106 0 -126 -3 -146
-19 l-24 -19 -5 -293 -5 -293 -174 303 c-128 222 -181 305 -198 312 -14 5
-101 9 -194 9 -156 0 -171 -2 -189 -20z"/>
<path d="M700 4194 c-259 -68 -429 -308 -455 -640 -13 -167 18 -334 91 -482
85 -174 216 -281 389 -317 223 -47 457 27 582 184 168 212 217 550 122 836
-76 227 -213 370 -405 420 -74 19 -250 19 -324 -1z m250 -362 c72 -53 104
-183 97 -392 -6 -180 -22 -238 -82 -297 -40 -40 -46 -43 -97 -43 -73 0 -114
28 -150 100 -37 74 -52 179 -45 325 8 189 41 274 122 316 47 24 115 20 155 -9z"/>
<path d="M4385 4191 c-104 -29 -157 -61 -235 -140 -131 -132 -197 -298 -207
-523 -11 -252 52 -453 190 -604 104 -114 211 -162 381 -173 l109 -6 13 -46
c23 -79 72 -140 138 -174 54 -27 71 -30 171 -33 148 -5 181 7 190 72 4 26 5
90 3 142 -5 120 -9 124 -124 124 -46 0 -86 5 -89 10 -4 6 20 40 53 75 139 148
202 322 202 558 0 371 -183 656 -462 722 -86 20 -256 18 -333 -4z m266 -362
c37 -26 73 -96 89 -174 16 -77 16 -282 0 -360 -15 -77 -57 -153 -95 -177 -41
-25 -130 -24 -172 2 -81 49 -126 250 -104 462 22 202 86 286 209 273 24 -3 57
-14 73 -26z"/>
<path d="M8150 4203 c-64 -10 -170 -57 -223 -99 -65 -50 -126 -138 -154 -217
-23 -69 -23 -212 0 -289 46 -153 171 -236 457 -308 192 -47 220 -62 220 -111
0 -84 -180 -119 -293 -57 -32 18 -49 37 -73 83 -27 53 -34 60 -64 63 -45 5
-296 -56 -316 -76 -37 -36 11 -171 94 -263 62 -70 147 -123 246 -156 72 -23
97 -26 226 -27 221 -1 346 41 458 154 185 187 188 468 7 639 -70 66 -148 103
-305 141 -211 52 -241 62 -257 87 -19 28 -10 68 17 83 34 18 112 23 159 10 48
-13 94 -54 123 -108 23 -43 52 -42 206 9 143 48 162 65 144 128 -17 54 -82
151 -130 192 -105 89 -233 130 -406 128 -61 -1 -122 -4 -136 -6z"/>
<path d="M2207 4172 c-16 -17 -17 -70 -17 -693 0 -567 2 -678 14 -695 13 -18
28 -19 190 -19 130 0 178 3 188 13 10 10 14 73 18 245 l5 232 191 5 191 5 79
39 c131 65 204 160 240 313 21 88 14 207 -16 286 -43 114 -154 220 -270 259
-61 21 -86 22 -430 26 -349 3 -367 2 -383 -16z m650 -348 c40 -30 58 -89 41
-139 -23 -67 -52 -80 -189 -83 l-119 -4 0 119 c0 66 3 123 8 127 4 4 57 6 119
4 94 -3 116 -6 140 -24z"/>
<path d="M5915 4170 c-19 -22 -20 -41 -20 -696 0 -633 1 -674 18 -691 15 -16
40 -18 182 -21 164 -3 165 -3 190 22 l25 25 0 241 0 240 64 0 c39 0 67 -5 73
-12 6 -7 51 -119 101 -248 57 -145 100 -242 113 -252 18 -16 44 -18 193 -18
191 0 216 7 216 59 0 16 -47 142 -105 281 -58 138 -105 257 -105 264 0 7 21
29 46 49 107 83 156 187 157 327 0 106 -22 183 -78 265 -51 75 -118 126 -204
156 -64 23 -78 24 -456 27 -390 3 -391 3 -410 -18z m675 -330 c46 -25 63 -106
34 -161 -24 -46 -66 -59 -199 -59 l-115 0 0 113 c0 63 3 117 7 120 10 10 252
-2 273 -13z"/>
<path d="M9484 4182 c-27 -17 -34 -56 -34 -175 0 -111 2 -127 21 -151 20 -26
21 -26 164 -26 l144 0 3 -516 3 -516 24 -19 c21 -17 41 -19 183 -19 155 0 159
1 183 25 l25 24 0 511 0 510 144 0 c194 0 190 -4 184 205 -3 112 -5 128 -22
141 -17 12 -103 14 -515 14 -273 0 -501 -4 -507 -8z"/>
<path d="M11174 4169 c-18 -20 -19 -43 -19 -508 1 -423 3 -495 18 -554 44
-178 152 -288 329 -338 70 -20 106 -23 233 -23 166 0 261 19 359 72 63 34 138
107 165 160 51 99 54 135 58 641 3 261 2 489 -2 507 -11 60 -21 64 -179 64
-107 0 -147 -4 -162 -14 -18 -14 -19 -34 -24 -498 -4 -431 -7 -486 -22 -514
-22 -41 -81 -64 -161 -64 -71 0 -120 20 -151 63 -20 28 -21 43 -26 514 -5 465
-6 485 -24 499 -15 11 -60 14 -196 14 -167 0 -178 -1 -196 -21z"/>
<path d="M2018 1793 c-94 -4 -112 -14 -110 -61 1 -44 391 -1335 408 -1352 23
-23 376 -22 399 1 9 9 36 81 59 160 280 925 356 1182 356 1198 0 35 -31 48
-131 55 -126 9 -196 0 -214 -28 -8 -11 -62 -187 -121 -391 -59 -203 -110 -373
-114 -378 -3 -4 -53 160 -110 365 -112 405 -115 414 -138 423 -22 8 -181 13
-284 8z"/>
<path d="M3745 1791 c-85 -7 -95 -13 -95 -54 0 -26 301 -1229 331 -1324 14
-43 51 -53 200 -53 140 0 176 6 194 34 8 11 49 166 92 344 42 177 80 322 83
322 3 0 43 -151 89 -335 50 -203 89 -339 99 -347 11 -9 61 -13 183 -13 142 0
171 3 185 16 18 19 343 1294 344 1350 0 20 -6 42 -14 48 -9 8 -65 13 -155 14
-129 2 -142 0 -160 -18 -13 -14 -38 -102 -85 -305 -37 -157 -72 -307 -80 -335
-13 -47 -14 -49 -23 -25 -6 14 -45 166 -88 338 -43 172 -84 319 -91 326 -31
32 -330 29 -358 -3 -7 -9 -46 -149 -85 -311 -97 -399 -92 -379 -102 -355 -5
11 -41 162 -80 335 -46 209 -76 321 -87 332 -20 20 -181 30 -297 19z"/>
<path d="M9593 1792 c-66 -5 -73 -22 -73 -173 0 -187 -24 -173 303 -179 l264
-5 -303 -385 -304 -385 0 -131 c0 -97 4 -135 14 -150 14 -18 32 -19 566 -19
l552 0 19 24 c16 20 19 40 19 145 0 66 -3 131 -6 142 -11 40 -41 44 -339 44
-157 0 -285 2 -285 5 0 5 40 57 389 495 107 134 200 256 208 270 8 16 13 65
13 141 0 99 -3 120 -19 140 l-19 23 -478 1 c-264 0 -498 -1 -521 -3z"/>
<path d="M6055 1770 c-11 -13 -15 -27 -11 -43 3 -14 81 -152 172 -308 92 -156
168 -287 170 -290 2 -3 -49 -95 -112 -205 -306 -526 -296 -506 -260 -542 14
-14 41 -17 177 -17 152 0 162 1 178 21 9 12 64 105 121 208 56 102 106 186
109 186 3 0 55 -87 114 -194 59 -107 115 -200 124 -207 12 -11 62 -14 210 -14
181 0 196 1 209 19 8 11 14 28 14 39 0 10 -86 167 -191 348 -105 182 -193 338
-196 347 -2 10 69 141 166 306 94 160 171 300 171 312 0 49 -19 54 -189 54
-110 0 -162 -4 -174 -12 -9 -7 -54 -80 -99 -162 -46 -82 -88 -151 -94 -153 -5
-1 -43 61 -84 139 -111 210 -76 188 -309 188 -184 0 -199 -1 -216 -20z"/>
<path d="M7754 1765 c-9 -14 -13 -33 -9 -44 3 -11 72 -141 152 -288 80 -147
168 -311 197 -363 l51 -95 5 -287 c4 -256 7 -289 22 -305 30 -29 321 -32 368
-3 13 8 16 56 20 297 l5 288 101 185 c270 493 304 559 304 587 0 50 -11 53
-181 53 -153 0 -158 -1 -176 -23 -10 -13 -60 -108 -112 -210 -52 -103 -98
-187 -103 -187 -4 0 -51 87 -104 193 -53 105 -103 200 -112 210 -13 15 -37 17
-213 17 l-199 0 -16 -25z"/>
</g>
</svg>
