<?xml version="1.0" encoding="utf-8"?>
<!-- Generator: Adobe Illustrator 19.0.0, SVG Export Plug-In . SVG Version: 6.00 Build 0)  -->
<svg version="1.1" xmlns="http://www.w3.org/2000/svg" xmlns:xlink="http://www.w3.org/1999/xlink" x="0px" y="0px"
	 viewBox="102 -132 816 1056" style="enable-background:new 102 -132 816 1056;" xml:space="preserve">
<style type="text/css">
	.st0{clip-path:url(#SVGID_2_);}
	.st1{clip-path:url(#SVGID_4_);}
</style>
<g id="svg2" xmlns:dc="http://purl.org/dc/elements/1.1/" xmlns:cc="http://creativecommons.org/ns#" xmlns:rdf="http://www.w3.org/1999/02/22-rdf-syntax-ns#" xmlns:svg="http://www.w3.org/2000/svg">
	<g id="g10" transform="matrix(1.3333333,0,0,-1.3333333,0,1056)">
		<g id="g12">
			<g>
				<defs>
					<rect id="SVGID_1_" x="-14.5" y="-63" width="816" height="1056"/>
				</defs>
				<clipPath id="SVGID_2_">
					<use xlink:href="#SVGID_1_"  style="overflow:visible;"/>
				</clipPath>
				<path class="st0" d="M364.1,650.3c11.6-1.4,19.4-6.3,23.6-15c1.8-3.8,1.9-5,1.9-13.5s-0.1-9.8-1.9-13.5c-1.1-2.3-3-5.4-4.3-6.8
					c-4.9-5.6-16.1-9.6-27.3-9.7h-4.4v29.6V651h2.9C356.1,651,360.5,650.6,364.1,650.3z M363.8,582.8c10.7-1.1,16.4-3,21.3-7.6
					c7.3-6.6,10.7-16.4,10-27.7c-1.2-17.3-13.2-28.6-30.6-28.8c-6.2-0.1-8.6,0.9-11,4.6c-1.2,1.9-1.4,4.8-1.6,31.1l-0.2,29.1h2.5
					C355.5,583.5,359.9,583.1,363.8,582.8z"/>
			</g>
		</g>
		<g id="g24">
			<g>
				<defs>
					<rect id="SVGID_3_" x="-25.5" y="-33" width="816" height="1056"/>
				</defs>
				<clipPath id="SVGID_4_">
					<use xlink:href="#SVGID_3_"  style="overflow:visible;"/>
				</clipPath>
				<g id="g26" class="st1">
				</g>
			</g>
		</g>
	</g>
</g>
<g id="Layer_2">
</g>
</svg>
