<?xml version="1.0" encoding="utf-8"?>
<!-- Generator: Adobe Illustrator 19.0.0, SVG Export Plug-In . SVG Version: 6.00 Build 0)  -->
<svg version="1.1"
	 id="svg2" xmlns:dc="http://purl.org/dc/elements/1.1/" xmlns:cc="http://creativecommons.org/ns#" xmlns:rdf="http://www.w3.org/1999/02/22-rdf-syntax-ns#" xmlns:svg="http://www.w3.org/2000/svg"
	 xmlns="http://www.w3.org/2000/svg" xmlns:xlink="http://www.w3.org/1999/xlink" x="0px" y="0px" viewBox="102 -132 816 1056"
	 style="enable-background:new 102 -132 816 1056;" xml:space="preserve">
<style type="text/css">
	.st0{clip-path:url(#SVGID_2_);}
	.st1{clip-path:url(#SVGID_4_);}
</style>
<g id="g10" transform="matrix(1.3333333,0,0,-1.3333333,0,1056)">
	<g id="g12">
		<g>
			<defs>
				<rect id="SVGID_1_" x="-14.5" y="-63" width="816" height="1056"/>
			</defs>
			<clipPath id="SVGID_2_">
				<use xlink:href="#SVGID_1_"  style="overflow:visible;"/>
			</clipPath>
			<path class="st0" d="M296.3,657.5c0-1.7,0.4-1.9,5.1-2.3c2.8-0.3,6.2-0.8,7.5-1.3c3-0.9,6.5-4.3,7.3-7.1c1-3.4,1.3-113,0.4-119.9
				c-0.7-5-1.1-6.3-3.1-8.3c-2.4-2.5-6.4-4-10.2-4c-4.9,0-7-0.8-7-2.7V510h42.2c46.9,0,53.1,0.4,65.2,4.5
				c9.3,3.2,14.3,6.1,20.2,11.9c8.3,8.3,11.6,18.2,9.9,29.7c-2,14.4-11.3,23.5-30.2,29.6c-3.9,1.2-7.6,2.3-8.4,2.3
				c-2.9,0-1.1,1.3,3.3,2.5c12.3,3.5,22.3,10.8,26.4,19.4c8.5,17.9-4.5,41-26.3,46.6c-8.6,2.2-20,2.7-61.1,2.7h-41.2V657.5z"/>
		</g>
	</g>
	<g id="g24">
		<g>
			<defs>
				<rect id="SVGID_3_" x="-25.5" y="-33" width="816" height="1056"/>
			</defs>
			<clipPath id="SVGID_4_">
				<use xlink:href="#SVGID_3_"  style="overflow:visible;"/>
			</clipPath>
			<g id="g26" class="st1">
			</g>
		</g>
	</g>
</g>
</svg>
